# xmcd
#
# Track frame offsets: 
#        150
#        24895
#        46212
#        68182
#        90720
#        104063
#        121677
#        138535
#        162476
#        186756
#        204405
#        237761
#
# Disc length: 3568 seconds
#
# Revision: 0
# Processed by: cddbd v1.5.2PL0 Copyright (c) Steve Scherf et al.
# Submitted via: ExactAudioCopyFreeDBPlugin 1.0
#
DISCID=9f0dee0c
DTITLE=Holly And Jon - Big Wind On The Way
DYEAR=2005
DGENRE=Blues
TTITLE0=One Desire
TTITLE1=Blood On The Trax
TTITLE2=Fragile And Forgiving
TTITLE3=I'm A Woman
TTITLE4=Slushy Blues
TTITLE5=Cowboy Angel
TTITLE6=Broke Down Ford
TTITLE7=Runnin On Kootenay Time
TTITLE8=The Free Way
TTITLE9=Home In The Country
TTITLE10=Train Wreck Blues
TTITLE11=Human Kindness 
EXTD=
EXTT0=
EXTT1=
EXTT2=
EXTT3=
EXTT4=
EXTT5=
EXTT6=
EXTT7=
EXTT8=
EXTT9=
EXTT10=
EXTT11=
PLAYORDER=
